<?xml version="1.0" encoding="UTF-8" standalone="no"?><svg xmlns="http://www.w3.org/2000/svg" xmlns:xlink="http://www.w3.org/1999/xlink" contentScriptType="application/ecmascript" contentStyleType="text/css" height="734px" preserveAspectRatio="none" style="width:509px;height:734px;" version="1.1" viewBox="0 0 509 734" width="509px" zoomAndPan="magnify"><defs><filter height="300%" id="fyhv0luyiyhin" width="300%" x="-1" y="-1"><feGaussianBlur result="blurOut" stdDeviation="2.0"/><feColorMatrix in="blurOut" result="blurOut2" type="matrix" values="0 0 0 0 0 0 0 0 0 0 0 0 0 0 0 0 0 0 .4 0"/><feOffset dx="4.0" dy="4.0" in="blurOut2" result="blurOut3"/><feBlend in="SourceGraphic" in2="blurOut3" mode="normal"/></filter></defs><g><!--MD5=[8699c0c8e953ee53654a072cc875bfb4]
cluster Browser--><polygon fill="#FFFFFF" filter="url(#fyhv0luyiyhin)" points="162,34.5,172,24.5,297,24.5,297,109.5,287,119.5,162,119.5,162,34.5" style="stroke: #000000; stroke-width: 1.5;"/><line style="stroke: #000000; stroke-width: 1.5;" x1="287" x2="296" y1="34.5" y2="25.5"/><line style="stroke: #000000; stroke-width: 1.5;" x1="162" x2="287" y1="34.5" y2="34.5"/><line style="stroke: #000000; stroke-width: 1.5;" x1="287" x2="287" y1="34.5" y2="119.5"/><text fill="#000000" font-family="sans-serif" font-size="14" font-weight="bold" lengthAdjust="spacingAndGlyphs" textLength="59" x="196" y="52.0332">Browser</text><!--MD5=[b4e09d266be9964199f2622adcc056fa]
cluster Backend--><polygon fill="#FFFFFF" filter="url(#fyhv0luyiyhin)" points="163,179.5,173,169.5,472,169.5,472,525.5,462,535.5,163,535.5,163,179.5" style="stroke: #000000; stroke-width: 1.5;"/><line style="stroke: #000000; stroke-width: 1.5;" x1="462" x2="471" y1="179.5" y2="170.5"/><line style="stroke: #000000; stroke-width: 1.5;" x1="163" x2="462" y1="179.5" y2="179.5"/><line style="stroke: #000000; stroke-width: 1.5;" x1="462" x2="462" y1="179.5" y2="535.5"/><text fill="#000000" font-family="sans-serif" font-size="14" font-weight="bold" lengthAdjust="spacingAndGlyphs" textLength="61" x="283" y="197.0332">Backend</text><!--MD5=[815249f79c2c08157ac02b3106e03757]
cluster Database--><polygon fill="#FFFFFF" filter="url(#fyhv0luyiyhin)" points="346,628.5,356,618.5,487,618.5,487,712.5,477,722.5,346,722.5,346,628.5" style="stroke: #000000; stroke-width: 1.5;"/><line style="stroke: #000000; stroke-width: 1.5;" x1="477" x2="486" y1="628.5" y2="619.5"/><line style="stroke: #000000; stroke-width: 1.5;" x1="346" x2="477" y1="628.5" y2="628.5"/><line style="stroke: #000000; stroke-width: 1.5;" x1="477" x2="477" y1="628.5" y2="722.5"/><text fill="#000000" font-family="sans-serif" font-size="14" font-weight="bold" lengthAdjust="spacingAndGlyphs" textLength="65" x="380" y="646.0332">Database</text><!--MD5=[056db7644fd855972490fe1694f3faa1]
cluster External--><rect fill="#FFFFFF" filter="url(#fyhv0luyiyhin)" height="100" style="stroke: #000000; stroke-width: 1.5;" width="293" x="22" y="623"/><path d="M90,624 L90,633.6094 L80,643.6094 L22,643.6094 " fill="none" style="stroke: #000000; stroke-width: 1.5;"/><text fill="#000000" font-family="sans-serif" font-size="14" font-weight="bold" lengthAdjust="spacingAndGlyphs" textLength="58" x="25" y="638.5332">External</text><!--MD5=[194a92f280a7d2c2f105939ff984a7cf]
entity Frontend--><rect fill="#FEFECE" filter="url(#fyhv0luyiyhin)" height="37.6094" style="stroke: #000000; stroke-width: 1.5;" width="78" x="190" y="65.5"/><text fill="#000000" font-family="sans-serif" font-size="14" lengthAdjust="spacingAndGlyphs" textLength="58" x="200" y="90.0332">Frontend</text><!--MD5=[53ccf4b3ee6cf4337a0ab93ac09644f3]
entity main--><rect fill="#FEFECE" filter="url(#fyhv0luyiyhin)" height="40.6094" style="stroke: #000000; stroke-width: 1.5;" width="80" x="376" y="359.5"/><polygon fill="#FEFECE" points="439,364.5,439,378.5,451,378.5,451,370.5,445,364.5,439,364.5" style="stroke: #000000; stroke-width: 1.5;"/><line style="stroke: #000000; stroke-width: 1.5;" x1="445" x2="445" y1="364.5" y2="370.5"/><line style="stroke: #000000; stroke-width: 1.5;" x1="451" x2="445" y1="370.5" y2="370.5"/><text fill="#000000" font-family="sans-serif" font-size="14" lengthAdjust="spacingAndGlyphs" textLength="50" x="386" y="387.0332">main.go</text><!--MD5=[389dee19e00cb22011d819f6b76ecc60]
entity bego--><rect fill="#FEFECE" filter="url(#fyhv0luyiyhin)" height="40.6094" style="stroke: #000000; stroke-width: 1.5;" width="104" x="193" y="478.5"/><polygon fill="#FEFECE" points="280,483.5,280,497.5,292,497.5,292,489.5,286,483.5,280,483.5" style="stroke: #000000; stroke-width: 1.5;"/><line style="stroke: #000000; stroke-width: 1.5;" x1="286" x2="286" y1="483.5" y2="489.5"/><line style="stroke: #000000; stroke-width: 1.5;" x1="292" x2="286" y1="489.5" y2="489.5"/><text fill="#000000" font-family="sans-serif" font-size="14" lengthAdjust="spacingAndGlyphs" textLength="74" x="203" y="506.0332">backend.go</text><!--MD5=[ac40dd4c03671801018102ca7be9c337]
entity rest--><rect fill="#FEFECE" filter="url(#fyhv0luyiyhin)" height="40.6094" style="stroke: #000000; stroke-width: 1.5;" width="93" x="179.5" y="359.5"/><polygon fill="#FEFECE" points="255.5,364.5,255.5,378.5,267.5,378.5,267.5,370.5,261.5,364.5,255.5,364.5" style="stroke: #000000; stroke-width: 1.5;"/><line style="stroke: #000000; stroke-width: 1.5;" x1="261.5" x2="261.5" y1="364.5" y2="370.5"/><line style="stroke: #000000; stroke-width: 1.5;" x1="267.5" x2="261.5" y1="370.5" y2="370.5"/><text fill="#000000" font-family="sans-serif" font-size="14" lengthAdjust="spacingAndGlyphs" textLength="63" x="189.5" y="387.0332">restapi.go</text><!--MD5=[dd82451e1dd92fe3da01853750f49ff6]
entity server--><rect fill="#FEFECE" filter="url(#fyhv0luyiyhin)" height="37.6094" style="stroke: #000000; stroke-width: 1.5;" width="100" x="179" y="210.5"/><text fill="#000000" font-family="sans-serif" font-size="14" lengthAdjust="spacingAndGlyphs" textLength="80" x="189" y="235.0332">HTTP server</text><!--MD5=[7fbd20eab0f047d95d8cf961cd333b40]
entity Postgres--><path d="M375,669.5 C375,659.5 413,659.5 413,659.5 C413,659.5 451,659.5 451,669.5 L451,696.1094 C451,706.1094 413,706.1094 413,706.1094 C413,706.1094 375,706.1094 375,696.1094 L375,669.5 " fill="#FEFECE" filter="url(#fyhv0luyiyhin)" style="stroke: #000000; stroke-width: 1.5;"/><path d="M375,669.5 C375,679.5 413,679.5 413,679.5 C413,679.5 451,679.5 451,669.5 " fill="none" style="stroke: #000000; stroke-width: 1.5;"/><text fill="#000000" font-family="sans-serif" font-size="14" lengthAdjust="spacingAndGlyphs" textLength="56" x="385" y="698.0332">Postgres</text><!--MD5=[fa5f2ca45d7d71a02e00e9182531f689]
entity Providers--><polygon fill="#FEFECE" filter="url(#fyhv0luyiyhin)" points="199,669,209,659,299,659,299,696.6094,289,706.6094,199,706.6094,199,669" style="stroke: #000000; stroke-width: 1.5;"/><line style="stroke: #000000; stroke-width: 1.5;" x1="289" x2="298" y1="669" y2="660"/><line style="stroke: #000000; stroke-width: 1.5;" x1="199" x2="289" y1="669" y2="669"/><line style="stroke: #000000; stroke-width: 1.5;" x1="289" x2="289" y1="669" y2="706.6094"/><text fill="#000000" font-family="sans-serif" font-size="14" lengthAdjust="spacingAndGlyphs" textLength="60" x="214" y="693.5332">Providers</text><!--MD5=[f0def2d225a8f1341be88fc38237b0d2]
entity proxies--><polygon fill="#FEFECE" filter="url(#fyhv0luyiyhin)" points="38,669,48,659,164,659,164,696.6094,154,706.6094,38,706.6094,38,669" style="stroke: #000000; stroke-width: 1.5;"/><line style="stroke: #000000; stroke-width: 1.5;" x1="154" x2="163" y1="669" y2="660"/><line style="stroke: #000000; stroke-width: 1.5;" x1="38" x2="154" y1="669" y2="669"/><line style="stroke: #000000; stroke-width: 1.5;" x1="154" x2="154" y1="669" y2="706.6094"/><text fill="#000000" font-family="sans-serif" font-size="14" lengthAdjust="spacingAndGlyphs" textLength="86" x="53" y="693.5332">Proxy servers</text><!--MD5=[b9adca20a7a6a5de807ee6ffc2e17d93]
link main to bego--><path d="M375.922,399.149 C358.48,407.731 338.152,418.682 321,430.5 C300.365,444.717 279.238,463.931 264.514,478.223 " fill="none" id="main-bego" style="stroke: #A80036; stroke-width: 1.0;"/><polygon fill="#000000" points="329,438.1758,323,441.1758,329,444.1758,329,438.1758" style="stroke: #000000; stroke-width: 1.0;"/><text fill="#000000" font-family="sans-serif" font-size="13" lengthAdjust="spacingAndGlyphs" textLength="54" x="335" y="444.9951">initializes</text><!--MD5=[b84fd4084e0af7a07511f38150c3a037]
link main to rest--><path d="M375.996,380 C345.916,380 304.615,380 272.966,380 " fill="none" id="main-rest" style="stroke: #A80036; stroke-width: 1.0;"/><polygon fill="#000000" points="297.75,366.6758,291.75,369.6758,297.75,372.6758,297.75,366.6758" style="stroke: #000000; stroke-width: 1.0;"/><text fill="#000000" font-family="sans-serif" font-size="13" lengthAdjust="spacingAndGlyphs" textLength="54" x="303.75" y="373.4951">initializes</text><!--MD5=[fafb470ecc839f487c5f474b77bcd50c]
link rest to bego--><path d="M226.41,400.624 C226.947,414.164 228.18,432.531 231,448.5 C232.77,458.526 235.74,469.439 238.49,478.46 " fill="none" id="rest-bego" style="stroke: #A80036; stroke-width: 1.0;"/><text fill="#000000" font-family="sans-serif" font-size="13" lengthAdjust="spacingAndGlyphs" textLength="27" x="232" y="444.9951">calls</text><polygon fill="#000000" points="241,453.8516,244,459.8516,247,453.8516,241,453.8516" style="stroke: #000000; stroke-width: 1.0;"/><!--MD5=[ef922b61e9cc8d593d23b41272ba3a58]
link Frontend to server--><path d="M229,103.611 C229,130.967 229,182.549 229,210.084 " fill="none" id="Frontend-server" style="stroke: #A80036; stroke-width: 1.0;"/><text fill="#000000" font-family="sans-serif" font-size="13" lengthAdjust="spacingAndGlyphs" textLength="43" x="230" y="149.9951">request</text><polygon fill="#000000" points="247,158.8516,250,164.8516,253,158.8516,247,158.8516" style="stroke: #000000; stroke-width: 1.0;"/><!--MD5=[ee05f27e3b7a3cf3aacdaea1bb858c2b]
link server to rest--><path d="M228.632,248.709 C228.066,276.745 226.984,330.268 226.4,359.223 " fill="none" id="server-rest" style="stroke: #A80036; stroke-width: 1.0;"/><text fill="#000000" font-family="sans-serif" font-size="13" lengthAdjust="spacingAndGlyphs" textLength="56" x="230" y="292.9951">delegates</text><polygon fill="#000000" points="288,286.1758,291,292.1758,294,286.1758,288,286.1758" style="stroke: #000000; stroke-width: 1.0;"/><text fill="#000000" font-family="sans-serif" font-size="13" lengthAdjust="spacingAndGlyphs" textLength="43" x="243" y="309.3467">request</text><text fill="#000000" font-family="sans-serif" font-size="13" lengthAdjust="spacingAndGlyphs" textLength="48" x="240.5" y="325.6982">handling</text><!--MD5=[a6f0365adf7cd430b155e2b9b630668e]
link bego to Postgres--><path d="M269.579,519.638 C280.367,528.794 292.856,540.158 303,551.5 C321.496,572.181 321.508,580.963 339,602.5 C355.286,622.552 375.334,643.9105 390.453,659.4342 " fill="none" id="bego-Postgres" style="stroke: #A80036; stroke-width: 1.0;"/><text fill="#000000" font-family="sans-serif" font-size="13" lengthAdjust="spacingAndGlyphs" textLength="36" x="340" y="582.4951">stores</text><polygon fill="#000000" points="353.5,591.3516,356.5,597.3516,359.5,591.3516,353.5,591.3516" style="stroke: #000000; stroke-width: 1.0;"/><!--MD5=[31ee276d9381da7c45fe13ecaafce2a6]
link bego to Providers--><path d="M243.593,519.552 C242.969,529.169 242.307,540.936 242,551.5 C241.341,574.157 241.005,579.855 242,602.5 C242.833,621.464 244.779,642.8985 246.409,658.7285 " fill="none" id="bego-Providers" style="stroke: #A80036; stroke-width: 1.0;"/><text fill="#000000" font-family="sans-serif" font-size="13" lengthAdjust="spacingAndGlyphs" textLength="42" x="243" y="565.9951">fetches</text><polygon fill="#000000" points="287,559.1758,290,565.1758,293,559.1758,287,559.1758" style="stroke: #000000; stroke-width: 1.0;"/><text fill="#000000" font-family="sans-serif" font-size="13" lengthAdjust="spacingAndGlyphs" textLength="32" x="254.5" y="582.3467">proxy</text><text fill="#000000" font-family="sans-serif" font-size="13" lengthAdjust="spacingAndGlyphs" textLength="41" x="250" y="598.6982">servers</text><!--MD5=[564481ca545dce445fdb85a34f3b0ed7]
link bego to proxies--><path d="M213.731,519.732 C201.366,528.492 187.606,539.528 177,551.5 C147.618,584.666 123.908,630.915 111.186,658.5197 " fill="none" id="bego-proxies" style="stroke: #A80036; stroke-width: 1.0;"/><text fill="#000000" font-family="sans-serif" font-size="13" lengthAdjust="spacingAndGlyphs" textLength="42" x="178" y="574.4951">checks</text><polygon fill="#000000" points="222,567.6758,225,573.6758,228,567.6758,222,567.6758" style="stroke: #000000; stroke-width: 1.0;"/><text fill="#000000" font-family="sans-serif" font-size="13" lengthAdjust="spacingAndGlyphs" textLength="37" x="187" y="590.8467">if work</text><!--MD5=[9c833c6271ad713b7ac3acc3350f3519]
link main to Postgres--><path d="M415.803,400.749 C415.269,454.373 413.793,602.467 413.226,659.3453 " fill="none" id="main-Postgres" style="stroke: #A80036; stroke-width: 1.0;"/><text fill="#000000" font-family="sans-serif" font-size="13" lengthAdjust="spacingAndGlyphs" textLength="54" x="415" y="504.4951">initializes</text><polygon fill="#000000" points="437.5,513.3516,440.5,519.3516,443.5,513.3516,437.5,513.3516" style="stroke: #000000; stroke-width: 1.0;"/><!--MD5=[a2f5ae7deff75fdc1074a5204aedfdde]
@startuml

hide circle

node Browser {
  rectangle Frontend
}

node Backend {
  artifact "main.go" as main
  artifact "backend.go" as bego
  artifact "restapi.go" as rest
  rectangle "HTTP server" as server
}

node Database {
  database Postgres
}

frame External  {
  node Providers
  node "Proxy servers" as proxies
}

main - bego : > initializes
main - rest : > initializes
rest - - bego : > calls

Frontend - - server : > request
server - - rest : > delegates\nrequest\nhandling
' rest - - - server : > initializes

bego - - Postgres : > stores
bego - - Providers : > fetches\nproxy\nservers
bego - - proxies : > checks\nif work
main - - Postgres : > initializes

@enduml

@startuml

hide circle

node Browser {
  rectangle Frontend
}

node Backend {
  artifact "main.go" as main
  artifact "backend.go" as bego
  artifact "restapi.go" as rest
  rectangle "HTTP server" as server
}

node Database {
  database Postgres
}

frame External  {
  node Providers
  node "Proxy servers" as proxies
}

main - bego : > initializes
main - rest : > initializes
rest - - bego : > calls

Frontend - - server : > request
server - - rest : > delegates\nrequest\nhandling

bego - - Postgres : > stores
bego - - Providers : > fetches\nproxy\nservers
bego - - proxies : > checks\nif work
main - - Postgres : > initializes

@enduml

PlantUML version 1.2020.10(Sun May 17 11:35:57 CEST 2020)
(GPL source distribution)
Java Runtime: OpenJDK Runtime Environment
JVM: OpenJDK 64-Bit Server VM
Java Version: 11.0.7+10
Operating System: Windows 10
Default Encoding: Cp1252
Language: en
Country: US
--></g></svg>